<svg data-v-2f0b87cb="" version="1.0" xmlns="http://www.w3.org/2000/svg" xmlns:xlink="http://www.w3.org/1999/xlink" width="100%" height="100%" viewBox="0 0 320.000000 65.000000" preserveAspectRatio="xMidYMid meet" color-interpolation-filters="sRGB" class="el-tooltip" style="margin: auto;"> <g data-v-2f0b87cb="" fill="#333333" class="icon-text-wrapper icon-svg-group iconsvg" stroke="none" stroke-width="1px"><g class="iconsvg-imagesvg" transform="translate(0,1.4958171844482422)" stroke="none" fill="#333333" stroke-width="1px"> <svg filter="url(#colors5243274417)" viewBox="0 0 60 60" x="0" y="0" width="60" height="60" filtersec="colorsf2216745617" class="image-svg-svg" stroke="none" fill="#333333" stroke-width="1px"><g mask="url(#cef7f7e74b37df8161c88496be54a10d)" stroke="none" fill="#333333" stroke-width="1px"><svg fill="#000000" xmlns="http://www.w3.org/2000/svg" xmlns:xlink="http://www.w3.org/1999/xlink" version="1.1" x="0" y="0" viewBox="5 5 90 90" style="enable-background:new 0 0 100 100;" xml:space="preserve" width="60" height="60" stroke="none" stroke-width="1px"><path d="M50,5C25.2,5,5,25.2,5,50s20.2,45,45,45s45-20.2,45-45S74.8,5,50,5z M87.7,34.4c0.7,1.6,1.3,3.3,1.7,5.1l-2,0.5  c-0.4-1.6-1-3.2-1.6-4.8L87.7,34.4z M82.4,25.2c1.1,1.4,2.1,2.9,3,4.4l-1.8,1c-0.8-1.5-1.8-2.9-2.8-4.2L82.4,25.2z M74.9,17.7  c1.4,1.1,2.8,2.3,4,3.5l-1.5,1.5c-1.2-1.2-2.5-2.3-3.8-3.3L74.9,17.7z M65.7,12.3c1.6,0.7,3.2,1.5,4.8,2.4l-1.1,1.8  c-1.5-0.8-3-1.6-4.5-2.3L65.7,12.3z M55.4,9.5c1.8,0.2,3.5,0.6,5.2,1l-0.5,2c-1.6-0.4-3.3-0.8-5-1L55.4,9.5z M10.6,39.4l2,0.5  c-0.4,1.6-0.8,3.3-1,5l-2.1-0.3C9.8,42.9,10.1,41.1,10.6,39.4z M9.2,50l2.1,0v0c0,1.7,0.1,3.4,0.3,5l-2.1,0.3  C9.3,53.6,9.2,51.8,9.2,50z M12.3,65.6c-0.7-1.6-1.3-3.3-1.7-5.1l2-0.5c0.4,1.6,1,3.2,1.6,4.8L12.3,65.6z M12.3,34.4  c0.7-1.6,1.5-3.2,2.4-4.8l1.8,1c-0.8,1.5-1.6,3-2.2,4.5L12.3,34.4z M17.6,74.8c-1.1-1.4-2.1-2.9-3-4.4l1.8-1  c0.8,1.5,1.8,2.9,2.8,4.2L17.6,74.8z M17.6,25.1c1.1-1.4,2.3-2.8,3.5-4l1.5,1.5c-1.2,1.2-2.3,2.5-3.3,3.8L17.6,25.1z M25.1,82.4  c-1.4-1.1-2.8-2.3-4-3.5l1.5-1.5c1.2,1.2,2.5,2.3,3.8,3.3L25.1,82.4z M25.2,17.6c1.4-1.1,2.9-2.1,4.4-3l1,1.8  c-1.5,0.8-2.9,1.8-4.2,2.8L25.2,17.6z M34.3,87.7c-1.6-0.7-3.2-1.5-4.8-2.4l1-1.8c1.5,0.8,3,1.6,4.5,2.2L34.3,87.7z M34.4,12.3  c1.6-0.7,3.3-1.3,5.1-1.7l0.5,2c-1.6,0.4-3.2,1-4.8,1.6L34.4,12.3z M44.6,90.5c-1.8-0.2-3.5-0.6-5.2-1l0.5-2c1.6,0.4,3.3,0.8,5,1  L44.6,90.5z M44.7,9.5c1.8-0.2,3.5-0.3,5.3-0.3h0.1v2.1H50c-1.7,0-3.4,0.1-5.1,0.3L44.7,9.5z M50,90.8l0-2.1h0c1.7,0,3.4-0.1,5-0.3  l0.3,2.1C53.5,90.7,51.8,90.8,50,90.8z M60.5,89.4l-0.5-2c1.6-0.4,3.2-1,4.8-1.6l0.8,1.9C63.9,88.4,62.2,89,60.5,89.4z M70.4,85.4  l-1-1.8c1.5-0.8,2.9-1.8,4.2-2.8l1.3,1.7C73.4,83.5,71.9,84.5,70.4,85.4z M78.8,78.9l-1.5-1.5c1.2-1.2,2.3-2.5,3.3-3.8l1.7,1.3  C81.3,76.3,80.1,77.6,78.8,78.9z M85.3,70.5l-1.8-1.1c0.8-1.5,1.6-3,2.2-4.5l1.9,0.8C87,67.3,86.2,68.9,85.3,70.5z M89.4,60.6  l-2-0.5c0.4-1.6,0.8-3.3,1-5l2.1,0.3C90.2,57.2,89.9,58.9,89.4,60.6z M88.7,50.1L88.7,50.1c0-1.7-0.1-3.4-0.3-5.1l2.1-0.3  c0.2,1.7,0.3,3.5,0.3,5.3v0.1H88.7z" stroke="none" fill="#000000" stroke-width="1px"></path></svg><g transform="translate(13.642578125,21.314697265625)" stroke="none" fill="#333333" stroke-width="1px"><g transform="translate(0, 0)" stroke="none" fill="#333333" stroke-width="1px"><g fill="#333333" stroke="none" stroke-width="1px"><path d="M5.55-17.37L1.46-17.37L1.46 0L17.31 0L17.31-4.09L5.55-4.09L5.55-17.37Z" transform="translate(-1.46484375, 17.37060546875)" stroke="none" fill="#333333" stroke-width="1px"></path></g></g><g transform="translate(15.8447265625, 0)" stroke="none" fill="#333333" stroke-width="1px"><g fill="#333333" stroke="none" stroke-width="1px"><path d="M5.55-10.73L5.55-13.28L14.25-13.28L14.25-10.73L5.55-10.73ZM5.55 0L5.55-6.64L15.26-6.64Q16.53-6.64 17.43-7.54L17.43-7.54Q18.33-8.45 18.33-9.70L18.33-9.70L18.33-14.31Q18.33-15.58 17.43-16.48L17.43-16.48Q16.53-17.37 15.26-17.37L15.26-17.37L1.46-17.37L1.46 0L5.55 0Z" transform="translate(-1.46484375, 17.37060546875)" stroke="none" fill="#333333" stroke-width="1px"></path></g></g></g></g><mask id="cef7f7e74b37df8161c88496be54a10d"><svg xmlns="http://www.w3.org/2000/svg" xmlns:xlink="http://www.w3.org/1999/xlink" version="1.1" x="0" y="0" viewBox="5 5 90 90" style="enable-background:new 0 0 100 100;" xml:space="preserve" width="60" height="60" fill="white"><path d="M50,5C25.2,5,5,25.2,5,50s20.2,45,45,45s45-20.2,45-45S74.8,5,50,5z M87.7,34.4c0.7,1.6,1.3,3.3,1.7,5.1l-2,0.5  c-0.4-1.6-1-3.2-1.6-4.8L87.7,34.4z M82.4,25.2c1.1,1.4,2.1,2.9,3,4.4l-1.8,1c-0.8-1.5-1.8-2.9-2.8-4.2L82.4,25.2z M74.9,17.7  c1.4,1.1,2.8,2.3,4,3.5l-1.5,1.5c-1.2-1.2-2.5-2.3-3.8-3.3L74.9,17.7z M65.7,12.3c1.6,0.7,3.2,1.5,4.8,2.4l-1.1,1.8  c-1.5-0.8-3-1.6-4.5-2.3L65.7,12.3z M55.4,9.5c1.8,0.2,3.5,0.6,5.2,1l-0.5,2c-1.6-0.4-3.3-0.8-5-1L55.4,9.5z M10.6,39.4l2,0.5  c-0.4,1.6-0.8,3.3-1,5l-2.1-0.3C9.8,42.9,10.1,41.1,10.6,39.4z M9.2,50l2.1,0v0c0,1.7,0.1,3.4,0.3,5l-2.1,0.3  C9.3,53.6,9.2,51.8,9.2,50z M12.3,65.6c-0.7-1.6-1.3-3.3-1.7-5.1l2-0.5c0.4,1.6,1,3.2,1.6,4.8L12.3,65.6z M12.3,34.4  c0.7-1.6,1.5-3.2,2.4-4.8l1.8,1c-0.8,1.5-1.6,3-2.2,4.5L12.3,34.4z M17.6,74.8c-1.1-1.4-2.1-2.9-3-4.4l1.8-1  c0.8,1.5,1.8,2.9,2.8,4.2L17.6,74.8z M17.6,25.1c1.1-1.4,2.3-2.8,3.5-4l1.5,1.5c-1.2,1.2-2.3,2.5-3.3,3.8L17.6,25.1z M25.1,82.4  c-1.4-1.1-2.8-2.3-4-3.5l1.5-1.5c1.2,1.2,2.5,2.3,3.8,3.3L25.1,82.4z M25.2,17.6c1.4-1.1,2.9-2.1,4.4-3l1,1.8  c-1.5,0.8-2.9,1.8-4.2,2.8L25.2,17.6z M34.3,87.7c-1.6-0.7-3.2-1.5-4.8-2.4l1-1.8c1.5,0.8,3,1.6,4.5,2.2L34.3,87.7z M34.4,12.3  c1.6-0.7,3.3-1.3,5.1-1.7l0.5,2c-1.6,0.4-3.2,1-4.8,1.6L34.4,12.3z M44.6,90.5c-1.8-0.2-3.5-0.6-5.2-1l0.5-2c1.6,0.4,3.3,0.8,5,1  L44.6,90.5z M44.7,9.5c1.8-0.2,3.5-0.3,5.3-0.3h0.1v2.1H50c-1.7,0-3.4,0.1-5.1,0.3L44.7,9.5z M50,90.8l0-2.1h0c1.7,0,3.4-0.1,5-0.3  l0.3,2.1C53.5,90.7,51.8,90.8,50,90.8z M60.5,89.4l-0.5-2c1.6-0.4,3.2-1,4.8-1.6l0.8,1.9C63.9,88.4,62.2,89,60.5,89.4z M70.4,85.4  l-1-1.8c1.5-0.8,2.9-1.8,4.2-2.8l1.3,1.7C73.4,83.5,71.9,84.5,70.4,85.4z M78.8,78.9l-1.5-1.5c1.2-1.2,2.3-2.5,3.3-3.8l1.7,1.3  C81.3,76.3,80.1,77.6,78.8,78.9z M85.3,70.5l-1.8-1.1c0.8-1.5,1.6-3,2.2-4.5l1.9,0.8C87,67.3,86.2,68.9,85.3,70.5z M89.4,60.6  l-2-0.5c0.4-1.6,0.8-3.3,1-5l2.1,0.3C90.2,57.2,89.9,58.9,89.4,60.6z M88.7,50.1L88.7,50.1c0-1.7-0.1-3.4-0.3-5.1l2.1-0.3  c0.2,1.7,0.3,3.5,0.3,5.3v0.1H88.7z"></path></svg><g transform="translate(13.642578125,21.314697265625)" fill="black"><g transform="translate(0, 0)"><g><path d="M5.55-17.37L1.46-17.37L1.46 0L17.31 0L17.31-4.09L5.55-4.09L5.55-17.37Z" transform="translate(-1.46484375, 17.37060546875)"></path></g></g><g transform="translate(15.8447265625, 0)"><g><path d="M5.55-10.73L5.55-13.28L14.25-13.28L14.25-10.73L5.55-10.73ZM5.55 0L5.55-6.64L15.26-6.64Q16.53-6.64 17.43-7.54L17.43-7.54Q18.33-8.45 18.33-9.70L18.33-9.70L18.33-14.31Q18.33-15.58 17.43-16.48L17.43-16.48Q16.53-17.37 15.26-17.37L15.26-17.37L1.46-17.37L1.46 0L5.55 0Z" transform="translate(-1.46484375, 17.37060546875)"></path></g></g></g></mask></svg> <defs><filter id="colors5243274417"><feColorMatrix type="matrix" values="0 0 0 0 0.19921875  0 0 0 0 0.19921875  0 0 0 0 0.19921875  0 0 0 1 0" class="icon-fecolormatrix"></feColorMatrix></filter> <filter id="colorsf2216745617"><feColorMatrix type="matrix" values="0 0 0 0 0.99609375  0 0 0 0 0.99609375  0 0 0 0 0.99609375  0 0 0 1 0" class="icon-fecolormatrix"></feColorMatrix></filter> <filter id="colorsb6733200637"><feColorMatrix type="matrix" values="0 0 0 0 0  0 0 0 0 0  0 0 0 0 0  0 0 0 1 0" class="icon-fecolormatrix"></feColorMatrix></filter></defs></g> <g transform="translate(67,0)" stroke="none" fill="#333333" stroke-width="1px"><g class="tp-name iconsvg-namesvg" stroke="none" fill="#333333" stroke-width="1px"><g stroke="none" fill="#333333" stroke-width="1px"><path d="M13.70-42.85L3.61-42.85L3.61 0L42.70 0L42.70-10.09L13.70-10.09L13.70-42.85ZM60.02-10.09L60.02-32.77L82.70-32.77L82.70-10.09L60.02-10.09ZM57.49 0L85.23 0Q88.36 0 90.59-2.23L90.59-2.23Q92.79-4.43 92.79-7.56L92.79-7.56L92.79-35.30Q92.79-38.43 90.59-40.66L90.59-40.66Q88.36-42.85 85.23-42.85L85.23-42.85L57.49-42.85Q54.36-42.85 52.16-40.66L52.16-40.66Q49.93-38.43 49.93-35.30L49.93-35.30L49.93-7.56Q49.93-4.43 52.16-2.23L52.16-2.23Q54.36 0 57.49 0L57.49 0ZM107.57 0L136.57 0Q139.71 0 141.93-2.23L141.93-2.23Q144.13-4.43 144.13-7.56L144.13-7.56L144.13-26.47L120.19-26.47L120.19-16.38L134.04-16.38L134.04-10.09L110.10-10.09L110.10-32.77L134.04-32.77L134.04-29.00L144.13-29.00L144.13-35.30Q144.13-38.43 141.93-40.66L141.93-40.66Q139.71-42.85 136.57-42.85L136.57-42.85L107.57-42.85Q104.44-42.85 102.24-40.66L102.24-40.66Q100.01-38.43 100.01-35.30L100.01-35.30L100.01-7.56Q100.01-4.43 102.24-2.23L102.24-2.23Q104.44 0 107.57 0L107.57 0ZM161.45-10.09L161.45-32.77L184.13-32.77L184.13-10.09L161.45-10.09ZM158.92 0L186.66 0Q189.79 0 192.02-2.23L192.02-2.23Q194.21-4.43 194.21-7.56L194.21-7.56L194.21-35.30Q194.21-38.43 192.02-40.66L192.02-40.66Q189.79-42.85 186.66-42.85L186.66-42.85L158.92-42.85Q155.79-42.85 153.59-40.66L153.59-40.66Q151.36-38.43 151.36-35.30L151.36-35.30L151.36-7.56Q151.36-4.43 153.59-2.23L153.59-2.23Q155.79 0 158.92 0L158.92 0ZM245.56-7.56L245.56-20.21Q245.56-22.44 244.18-24.15L244.18-24.15Q242.82-25.87 240.62-26.35L240.62-26.35L240.08-26.47L211.53-26.50L211.53-32.77L235.47-32.77L235.47-29.00L245.56-29.00L245.56-35.30Q245.56-38.43 243.36-40.66L243.36-40.66Q241.13-42.85 238.00-42.85L238.00-42.85L209.00-42.85Q205.87-42.85 203.67-40.66L203.67-40.66Q201.44-38.43 201.44-35.30L201.44-35.30L201.44-22.71Q201.44-20.45 202.83-18.73L202.83-18.73Q204.21-17.02 206.38-16.53L206.38-16.53L206.92-16.41L235.47-16.38L235.47-10.09L211.53-10.09L211.53-13.88L201.44-13.88L201.44-7.56Q201.44-4.43 203.67-2.23L203.67-2.23Q205.87 0 209.00 0L209.00 0L238.00 0Q241.13 0 243.36-2.23L243.36-2.23Q245.56-4.43 245.56-7.56L245.56-7.56Z" transform="translate(-3.6138453264686, 42.854182496374)" stroke="none" fill="#333333" stroke-width="1px"></path></g> <!----> <!----> <!----> <!----> <!----> <!----> <g fill="#333333" transform="translate(0,45.849998474121094)" stroke="none" stroke-width="1px"><path d="M5.48-10.59L5.48-13.11L14.06-13.11L14.06-10.59L5.48-10.59ZM5.48 0L5.48-6.55L15.06-6.55Q16.31-6.55 17.21-7.45L17.21-7.45Q18.10-8.34 18.10-9.58L18.10-9.58L18.10-14.12Q18.10-15.37 17.21-16.27L17.21-16.27Q16.31-17.15 15.06-17.15L15.06-17.15L1.45-17.15L1.45 0L5.48 0ZM25.03-4.04L25.03-13.11L34.10-13.11L34.10-4.04L25.03-4.04ZM24.01 0L35.11 0Q36.36 0 37.26-0.89L37.26-0.89Q38.14-1.77 38.14-3.02L38.14-3.02L38.14-14.12Q38.14-15.37 37.26-16.27L37.26-16.27Q36.36-17.15 35.11-17.15L35.11-17.15L24.01-17.15Q22.76-17.15 21.88-16.27L21.88-16.27Q20.99-15.37 20.99-14.12L20.99-14.12L20.99-3.02Q20.99-1.77 21.88-0.89L21.88-0.89Q22.76 0 24.01 0L24.01 0ZM45.06-17.15L41.03-17.15L41.03 0L56.67 0L56.67-4.04L45.06-4.04L45.06-17.15ZM62.58 0L73.68 0Q74.90 0 75.74-0.86L75.74-0.86Q76.70-1.83 76.70-3.53L76.70-3.53L76.70-17.15L72.67-17.15L72.67-10.59L63.59-10.59L63.59-17.15L59.56-17.15L59.56-9.58Q59.56-8.34 60.45-7.45L60.45-7.45Q61.33-6.55 62.58-6.55L62.58-6.55L72.67-6.55L72.67-4.04L63.59-4.04L63.59-5.55L59.56-5.55L59.56-3.02Q59.56-1.77 60.45-0.89L60.45-0.89Q61.33 0 62.58 0L62.58 0ZM96.74-17.15L79.60-17.15L79.60-13.11L86.15-13.11L86.15 0L90.19 0L90.19-13.11L96.74-13.11L96.74-17.15ZM99.63-10.59L99.63-6.55L116.78-6.55L116.78-10.59L99.63-10.59ZM99.63-17.15L99.63-13.11L116.78-13.11L116.78-17.15L99.63-17.15ZM99.63-4.04L99.63 0L116.78 0L116.78-4.04L99.63-4.04ZM122.70 0L134.30 0Q135.55 0 136.44-0.89L136.44-0.89Q137.32-1.77 137.32-3.02L137.32-3.02L137.32-5.55L133.29-5.55L133.29-4.04L123.71-4.04L123.71-13.11L133.29-13.11L133.29-11.60L137.32-11.60L137.32-14.12Q137.32-15.37 136.44-16.27L136.44-16.27Q135.55-17.15 134.30-17.15L134.30-17.15L122.70-17.15Q121.44-17.15 120.56-16.27L120.56-16.27Q119.67-15.37 119.67-14.12L119.67-14.12L119.67-3.02Q119.67-1.77 120.56-0.89L120.56-0.89Q121.44 0 122.70 0L122.70 0ZM158.37-17.15L154.34-17.15L154.34-10.59L144.25-10.59L144.25-17.15L140.21-17.15L140.21 0L144.25 0L144.25-6.55L154.34-6.55L154.34 0L158.37 0L158.37-17.15ZM179.42-17.15L175.39-17.15L175.39-5.96L165.82-17.15L161.26-17.15L161.26 0L165.30 0L165.30-11.19L174.87 0L179.42 0L179.42-17.15ZM182.31-17.15L182.31 0L186.35 0L186.35-17.15L182.31-17.15ZM207.15-17.15L200.97-17.15L193.28-10.53L193.28-17.15L189.24-17.15L189.24 0L193.28 0L193.28-5.19L196.06-7.60L201.91 0L207.00 0L199.12-10.24L207.15-17.15ZM214.08-4.04L214.08-13.11L223.15-13.11L223.15-4.04L214.08-4.04ZM213.06 0L224.16 0Q225.41 0 226.31-0.89L226.31-0.89Q227.19-1.77 227.19-3.02L227.19-3.02L227.19-14.12Q227.19-15.37 226.31-16.27L226.31-16.27Q225.41-17.15 224.16-17.15L224.16-17.15L213.06-17.15Q211.81-17.15 210.93-16.27L210.93-16.27Q210.04-15.37 210.04-14.12L210.04-14.12L210.04-3.02Q210.04-1.77 210.93-0.89L210.93-0.89Q211.81 0 213.06 0L213.06 0ZM247.73-3.02L247.73-8.08Q247.73-8.98 247.17-9.66L247.17-9.66Q246.63-10.35 245.75-10.54L245.75-10.54L245.54-10.59L234.11-10.60L234.11-13.11L243.69-13.11L243.69-11.60L247.73-11.60L247.73-14.12Q247.73-15.37 246.85-16.27L246.85-16.27Q245.96-17.15 244.70-17.15L244.70-17.15L233.10-17.15Q231.85-17.15 230.97-16.27L230.97-16.27Q230.08-15.37 230.08-14.12L230.08-14.12L230.08-9.08Q230.08-8.18 230.63-7.49L230.63-7.49Q231.19-6.81 232.05-6.61L232.05-6.61L232.27-6.57L243.69-6.55L243.69-4.04L234.11-4.04L234.11-5.55L230.08-5.55L230.08-3.02Q230.08-1.77 230.97-0.89L230.97-0.89Q231.85 0 233.10 0L233.10 0L244.70 0Q245.96 0 246.85-0.89L246.85-0.89Q247.73-1.77 247.73-3.02L247.73-3.02Z" transform="translate(-1.4458876320697, 17.145817503626)" stroke="none" fill="#333333" stroke-width="1px"></path></g></g> <!----></g></g></svg>